<svg xmlns="http://www.w3.org/2000/svg" viewBox="0 0 397.05 188.7"><defs><style>.cls-1{fill:#010101;}.cls-2{fill:#4ac8ef;}</style></defs><g id="Layer_2" data-name="Layer 2"><g id="Layer_1-2" data-name="Layer 1"><path class="cls-1" d="M42.35,187.28,222,188.7a10,10,0,0,0,.16-20.09L42.51,167.19a10,10,0,1,0-.16,20.09Z"/><path class="cls-1" d="M188.71,102.06l81.55.65a10,10,0,0,0,.16-20.09L188.87,82a10,10,0,1,0-.16,20.08Z"/><path class="cls-1" d="M10,100.65l65.29.52a10,10,0,0,0,.16-20.09l-65.29-.51A10,10,0,0,0,10,100.65Z"/><path class="cls-1" d="M43.53,101a18.57,18.57,0,1,0,36.83-2.91l-36.48-.29A18.66,18.66,0,0,0,43.53,101Z"/><path class="cls-1" d="M235.58,102.48a18.57,18.57,0,0,0,37.13.3,20,20,0,0,0-.3-3.21l-36.48-.28A18.65,18.65,0,0,0,235.58,102.48Z"/><path class="cls-2" d="M397.05,109.58a46.91,46.91,0,0,1-93.81-.74C303.4,88.4,333.07,27.93,345.59,3.3a6,6,0,0,1,10.78.09C368.5,28.21,397.21,89.15,397.05,109.58Z"/></g></g></svg>