<svg xmlns="http://www.w3.org/2000/svg" xmlns:xlink="http://www.w3.org/1999/xlink" viewBox="0 0 327.72 160.59"><defs><style>.cls-1{mask:url(#mask);filter:url(#luminosity-noclip-3);}.cls-2,.cls-4{mix-blend-mode:multiply;}.cls-2{fill:url(#radial-gradient);}.cls-3{mask:url(#mask-2);filter:url(#luminosity-noclip-4);}.cls-4{fill:url(#radial-gradient-2);}.cls-5{mask:url(#mask-3);}.cls-6{fill:url(#radial-gradient-3);}.cls-7{mask:url(#mask-4);}.cls-8{fill:url(#radial-gradient-4);}.cls-9{fill:#010101;}.cls-10{filter:url(#luminosity-noclip-2);}.cls-11{filter:url(#luminosity-noclip);}</style><filter id="luminosity-noclip" x="0" y="-8341.12" width="100.23" height="32766" filterUnits="userSpaceOnUse" color-interpolation-filters="sRGB"><feFlood flood-color="#fff" result="bg"/><feBlend in="SourceGraphic" in2="bg"/></filter><mask id="mask" x="0" y="-8341.12" width="100.23" height="32766" maskUnits="userSpaceOnUse"><g class="cls-11"/></mask><radialGradient id="radial-gradient" cx="1080.98" cy="314.39" r="50.11" gradientTransform="matrix(-1, -0.05, -0.05, 1, 1144.92, -161.29)" gradientUnits="userSpaceOnUse"><stop offset="0" stop-color="#fff"/><stop offset="0.13" stop-color="#fbfbfb"/><stop offset="0.25" stop-color="#f0f0f0"/><stop offset="0.37" stop-color="#ddd"/><stop offset="0.49" stop-color="#c2c2c2"/><stop offset="0.6" stop-color="#9f9f9f"/><stop offset="0.72" stop-color="#757575"/><stop offset="0.83" stop-color="#434343"/><stop offset="0.94" stop-color="#0a0a0a"/><stop offset="0.96"/></radialGradient><filter id="luminosity-noclip-2" x="227.49" y="-8341.12" width="100.23" height="32766" filterUnits="userSpaceOnUse" color-interpolation-filters="sRGB"><feFlood flood-color="#fff" result="bg"/><feBlend in="SourceGraphic" in2="bg"/></filter><mask id="mask-2" x="227.49" y="-8341.12" width="100.23" height="32766" maskUnits="userSpaceOnUse"><g class="cls-10"/></mask><radialGradient id="radial-gradient-2" cx="853.48" cy="313.42" r="50.11" gradientTransform="matrix(-1, -0.05, -0.05, 1, 1145.13, -172.77)" xlink:href="#radial-gradient"/><filter id="luminosity-noclip-3" x="0" y="50.77" width="100.23" height="100.23" filterUnits="userSpaceOnUse" color-interpolation-filters="sRGB"><feFlood flood-color="#fff" result="bg"/><feBlend in="SourceGraphic" in2="bg"/></filter><mask id="mask-3" x="0" y="50.77" width="100.23" height="100.23" maskUnits="userSpaceOnUse"><g class="cls-1"><circle class="cls-2" cx="50.11" cy="100.88" r="50.11" transform="translate(-5.03 2.66) rotate(-2.89)"/></g></mask><radialGradient id="radial-gradient-3" cx="1080.98" cy="314.39" r="50.11" gradientTransform="matrix(-1, -0.05, -0.05, 1, 1144.92, -161.29)" gradientUnits="userSpaceOnUse"><stop offset="0" stop-color="#f68630"/><stop offset="0.17" stop-color="#f68734"/><stop offset="0.34" stop-color="#f6883f"/><stop offset="0.5" stop-color="#f68b52"/><stop offset="0.65" stop-color="#f58e6d"/><stop offset="0.81" stop-color="#f5938f"/><stop offset="0.96" stop-color="#f499b9"/><stop offset="0.96" stop-color="#f499b9"/></radialGradient><filter id="luminosity-noclip-4" x="227.49" y="49.23" width="100.23" height="100.23" filterUnits="userSpaceOnUse" color-interpolation-filters="sRGB"><feFlood flood-color="#fff" result="bg"/><feBlend in="SourceGraphic" in2="bg"/></filter><mask id="mask-4" x="227.49" y="49.23" width="100.23" height="100.23" maskUnits="userSpaceOnUse"><g class="cls-3"><circle class="cls-4" cx="277.61" cy="99.34" r="50.11" transform="translate(-4.66 14.13) rotate(-2.89)"/></g></mask><radialGradient id="radial-gradient-4" cx="853.48" cy="313.42" r="50.11" gradientTransform="matrix(-1, -0.05, -0.05, 1, 1145.13, -172.77)" xlink:href="#radial-gradient-3"/></defs><g id="Layer_2" data-name="Layer 2"><g id="Layer_1-2" data-name="Layer 1"><g class="cls-5"><circle class="cls-6" cx="50.11" cy="100.88" r="50.11" transform="translate(-5.03 2.66) rotate(-2.89)"/></g><g class="cls-7"><circle class="cls-8" cx="277.61" cy="99.34" r="50.11" transform="translate(-4.66 14.13) rotate(-2.89)"/></g><path class="cls-9" d="M159.78,160.59c-69.48.18-97.71-52.7-98.88-54.95a10,10,0,1,1,17.81-9.25c.94,1.78,24.09,44.28,81,44.14S239.6,97.77,240.55,96a10,10,0,0,1,17.84,9.19C257.23,107.4,229.27,160.42,159.78,160.59Z"/><path class="cls-9" d="M296.91,52.63a10,10,0,0,1-9.64-7.2c-.31-1-8-25.42-31.22-25.36-23.47.05-31,25.26-31.09,25.51A10,10,0,1,1,205.68,40c4-13.8,19.63-39.93,50.32-40s46.47,26,50.52,39.76a10,10,0,0,1-6.8,12.46A9.8,9.8,0,0,1,296.91,52.63Z"/><path class="cls-9" d="M101.87,53.11a10,10,0,0,1-9.64-7.2c-.31-1-8-25.42-31.22-25.36-23.47.06-31,25.26-31.09,25.51a10,10,0,1,1-19.28-5.57C14.63,26.69,30.27.56,61,.48s46.47,26,50.52,39.77a10,10,0,0,1-6.79,12.45A9.87,9.87,0,0,1,101.87,53.11Z"/></g></g></svg>