<svg xmlns="http://www.w3.org/2000/svg" xmlns:xlink="http://www.w3.org/1999/xlink" viewBox="0 0 361.51 446.62"><defs><style>.cls-1{fill:none;}.cls-2{clip-path:url(#clip-path);}.cls-3{fill:#010101;}.cls-4{fill:#ee1e4f;}</style><clipPath id="clip-path" transform="translate(68.48 53.6)"><path class="cls-1" d="M107.63,64.55c37.79-2.8,73.52,3.08,103.77,15.44a15.56,15.56,0,0,1,9.32,15.2A111.27,111.27,0,0,1,.3,111.53a15.54,15.54,0,0,1,7-16.4C35.36,78.44,69.84,67.35,107.63,64.55Z"/></clipPath></defs><g id="Layer_2" data-name="Layer 2"><g id="Layer_1-2" data-name="Layer 1"><g class="cls-2"><circle class="cls-3" cx="180.76" cy="180.76" r="180.75"/><circle class="cls-4" cx="190.64" cy="313.96" r="132.65"/></g><path class="cls-3" d="M201.87,39a6.64,6.64,0,0,1-1.18,0l-58.44-5.33A7.24,7.24,0,0,1,139,20.33L169,1.16a7.23,7.23,0,1,1,7.78,12.2l-12.19,7.78L202,24.55A7.24,7.24,0,0,1,201.87,39Z" transform="translate(68.48 53.6)"/><path class="cls-3" d="M14.12,52.91a7.24,7.24,0,0,1-2.24-14.26l36.45-8.89L35.12,23.87a7.25,7.25,0,0,1-3.66-9.56A7.17,7.17,0,0,1,41,10.66L73.55,25.19a7.23,7.23,0,0,1-1.24,13.64l-57,13.9A6.91,6.91,0,0,1,14.12,52.91Z" transform="translate(68.48 53.6)"/></g></g></svg>