<svg xmlns="http://www.w3.org/2000/svg" viewBox="0 0 344.4 167.2"><defs><style>.cls-1{fill:#010101;}.cls-2{fill:#ee3784;}</style></defs><g id="Layer_2" data-name="Layer 2"><g id="Layer_1-2" data-name="Layer 1"><path class="cls-1" d="M167.48,167.15c-34-1.3-46.84-27.9-47.35-29.05a8.16,8.16,0,0,1,14.77-6.92c.37.71,9.42,18.76,33.2,19.67,24.12.92,34.49-16.89,34.62-17.07a8.15,8.15,0,1,1,14.19,8C216.32,142.92,201.45,168.45,167.48,167.15Z"/><path class="cls-2" d="M271.59,27.43,279,20.6a39,39,0,0,1,55,2.12h0a39,39,0,0,1-2.11,55.05l-59.71,55.3a6.59,6.59,0,0,1-9.31-.36L207.59,73a39,39,0,0,1,2.12-55.06h0a39,39,0,0,1,55,2.12Z"/><path class="cls-2" d="M74.37,19.86,81.75,13a39,39,0,0,1,55.06,2.12h0a39,39,0,0,1-2.12,55.05L75,125.5a6.59,6.59,0,0,1-9.31-.36L10.37,65.43a39,39,0,0,1,2.12-55.06h0a39,39,0,0,1,55.05,2.12Z"/></g></g></svg>