<svg xmlns="http://www.w3.org/2000/svg" viewBox="0 0 272.26 167.64"><defs><style>.cls-1{fill:#010101;}</style></defs><g id="Layer_2" data-name="Layer 2"><g id="Layer_1-2" data-name="Layer 1"><path class="cls-1" d="M262.23,36.49A10,10,0,0,1,254,32.15h0s-3.86-4.35-14.85-8.54C227.7,19.26,221.93,20,222,20.16c-5.31.72-10.59-2.58-11.64-7.89A9.85,9.85,0,0,1,217.56.57c1.73-.44,11.58-2.27,28.68,4.26s23.2,14.43,24.25,15.94a10,10,0,0,1-2.58,14A9.91,9.91,0,0,1,262.23,36.49Z"/><path class="cls-1" d="M10,36.48a9.75,9.75,0,0,1-5.86-1.91A9.87,9.87,0,0,1,1.72,21C2.77,19.48,8.78,11.6,25.94,5S52.82.36,54.61.7A10.05,10.05,0,0,1,62,12.82a10.3,10.3,0,0,1-11.79,7.45c-.43,0-6.11-.67-17.1,3.5-11.32,4.34-15,8.81-15,8.88A10.35,10.35,0,0,1,10,36.48Z"/><circle class="cls-1" cx="225.33" cy="63.84" r="23.19" transform="matrix(0.13, -0.99, 0.99, 0.13, 132.31, 278.77)"/><circle class="cls-1" cx="46.94" cy="63.98" r="23.19" transform="translate(-22.05 103.2) rotate(-83.35)"/><path class="cls-1" d="M52.86,167.64a10.31,10.31,0,0,1-4.6-1.11A10,10,0,0,1,43.93,153c1.11-2.16,28-52.93,94.57-53S232,150.7,233.15,152.86a10,10,0,0,1-17.8,9.24c-.93-1.69-22.82-42-76.84-42-54.45,0-76.52,41.67-76.73,42.11A10,10,0,0,1,52.86,167.64Z"/></g></g></svg>